<svg width="172" height="34" viewBox="0 0 172 34" fill="none" xmlns="http://www.w3.org/2000/svg">
  <g clip-path="url(#clip0_custom)">
    <!-- Diamonds Logo Icon -->
    <path d="M16 4L24 17L16 30L8 17L16 4Z" fill="#D4AF37" stroke="#D4AF37" stroke-width="1.5"/>
    <path d="M16 7L22 17L16 27L10 17L16 7Z" fill="#FFFFFF" stroke="#D4AF37" stroke-width="0.5"/>
    
    <!-- Litmex Text -->
    <path d="M41.736 24H37.8L36.84 21.4H30.6L29.64 24H25.704L31.752 9.12H35.688L41.736 24ZM35.688 18.28L33.72 13.12L31.752 18.28H35.688Z" fill="#D4AF37"/>
    <path d="M44.637 24V9.12H48.333V20.76H53.781V24H44.637Z" fill="#D4AF37"/>
    <path d="M56.254 24V9.12H59.95V24H56.254Z" fill="#D4AF37"/>
    <path d="M67.9 24V9.12H71.596V20.76H77.044V24H67.9Z" fill="#D4AF37"/>
    <path d="M86.18 24V9.12H89.876V24H86.18Z" fill="#D4AF37"/>
    <path d="M99.447 24.24C97.847 24.24 96.487 23.96 95.367 23.4C94.247 22.84 93.387 22.04 92.787 21C92.187 19.944 91.887 18.708 91.887 17.292V9.12H95.583V16.992C95.583 18.208 95.855 19.128 96.399 19.752C96.959 20.376 97.927 20.688 99.303 20.688C100.679 20.688 101.639 20.376 102.183 19.752C102.727 19.128 102.999 18.208 102.999 16.992V9.12H106.695V17.292C106.695 18.708 106.387 19.944 105.771 21C105.171 22.04 104.311 22.84 103.191 23.4C102.087 23.96 100.839 24.24 99.447 24.24Z" fill="#D4AF37"/>
    
    <path d="M118.314 24H110.394V9.12H111.594L117.834 18.12V9.12H121.53V24H120.33L114.09 15V24H110.394Z" fill="currentColor"/>
    <path d="M133.221 24V9.12H142.365V12.36H136.917V14.88H141.405V18.12H136.917V20.76H142.605V24H133.221Z" fill="currentColor"/>
    
    <path d="M157.897 24H153.961L153.001 21.4H146.761L145.801 24H141.865L147.913 9.12H151.849L157.897 24ZM151.849 18.28L149.881 13.12L147.913 18.28H151.849Z" fill="currentColor"/>
    <path d="M160.798 24V9.12H164.494V20.76H169.942V24H160.798Z" fill="currentColor"/>
  </g>
  <defs>
    <clipPath id="clip0_custom">
      <rect width="172" height="34" fill="white"/>
    </clipPath>
  </defs>
</svg>
